<?xml version="1.0" standalone="no"?>
<!DOCTYPE svg PUBLIC "-//W3C//DTD SVG 20010904//EN"
 "http://www.w3.org/TR/2001/REC-SVG-20010904/DTD/svg10.dtd">
<svg version="1.0" xmlns="http://www.w3.org/2000/svg"
 width="512.000000pt" height="512.000000pt" viewBox="0 0 512.000000 512.000000"
 preserveAspectRatio="xMidYMid meet">

<g transform="translate(0.000000,512.000000) scale(0.100000,-0.100000)"
fill="#000000" stroke="none">
<path d="M1630 5109 c-223 -11 -229 -12 -278 -54 -50 -43 -55 -58 -91 -269
-16 -92 -32 -170 -34 -173 -3 -3 -112 5 -242 17 -266 25 -288 23 -352 -33 -65
-57 -73 -106 -52 -295 13 -117 23 -146 55 -161 35 -16 48 -14 79 11 l28 22 -7
95 c-3 53 -9 121 -12 152 -6 50 -4 58 13 67 13 8 83 5 238 -10 121 -11 221
-22 223 -23 3 -2 -192 -1142 -203 -1192 -5 -21 -11 -23 -75 -23 -53 0 -70 3
-70 14 0 27 -70 641 -76 666 -9 39 -34 60 -71 60 -49 0 -73 -29 -73 -87 0 -27
16 -183 34 -348 19 -165 33 -301 31 -303 -1 -1 -28 -7 -58 -12 -106 -17 -178
-70 -223 -165 -32 -68 -31 -134 6 -275 33 -127 53 -163 95 -170 26 -5 30 -12
46 -74 l18 -69 -25 -19 c-17 -14 -24 -29 -24 -52 0 -50 567 -2193 596 -2253
27 -56 63 -91 128 -126 l41 -22 1046 -3 1046 -2 26 21 c15 11 27 27 27 35 0
11 17 14 80 14 63 0 80 -3 80 -14 0 -8 12 -24 28 -36 24 -20 36 -22 112 -18
127 7 207 54 254 151 31 63 736 2771 736 2825 0 81 -77 192 -159 228 -23 10
-41 24 -41 32 0 8 25 161 56 339 l57 325 -20 26 c-32 44 -104 42 -124 -2 -6
-13 -37 -172 -68 -352 l-57 -329 -62 -3 -62 -3 0 549 c0 492 2 550 16 556 9 3
66 6 128 6 106 0 114 -1 135 -24 21 -23 23 -30 16 -95 -7 -66 -6 -71 19 -95
45 -46 107 -26 126 42 27 98 4 208 -56 264 -52 49 -90 58 -244 58 l-140 0 0
161 c0 270 10 261 -406 330 -174 28 -325 49 -346 46 -46 -6 -93 -39 -116 -80
-14 -27 -17 -67 -20 -253 l-4 -221 -111 -6 c-62 -4 -131 -7 -153 -7 l-41 0 -5
68 c-6 76 -20 106 -58 122 -28 12 -72 1 -85 -20 -4 -6 -6 -523 -6 -1149 l2
-1138 -73 -21 c-126 -37 -290 -53 -355 -36 l-23 6 0 1015 c0 917 -2 1018 -16
1049 -20 41 -58 73 -96 81 l-28 6 0 91 c0 50 4 97 9 105 7 11 37 8 172 -15 90
-15 180 -27 199 -27 61 2 92 73 53 122 -15 18 -48 27 -193 51 -197 34 -237 36
-283 16 -39 -16 -82 -61 -96 -99 -6 -16 -11 -71 -11 -123 0 -73 -3 -94 -14
-94 -20 0 -119 19 -124 24 -2 3 13 106 34 230 l38 225 -19 47 c-12 27 -36 60
-58 77 -35 29 -44 31 -125 33 -48 1 -166 -2 -262 -7z m298 -151 c7 -9 -1 -77
-26 -221 l-36 -208 -55 7 c-115 15 -159 2 -208 -63 l-28 -36 -3 -599 -2 -598
-211 0 -211 0 6 28 c3 15 69 396 146 847 82 472 146 823 153 827 7 4 44 8 82
9 58 1 246 10 356 17 15 1 31 -4 37 -10z m1912 -121 l255 -42 3 -175 c2 -96 0
-446 -3 -777 l-7 -603 -284 0 -284 0 0 825 0 826 33 -6 c17 -3 147 -25 287
-48z m-1818 -492 c150 -25 276 -45 281 -45 4 0 7 -443 7 -985 l0 -985 -52 21
c-197 77 -363 232 -454 424 -76 159 -74 134 -74 918 0 418 4 697 9 697 5 0
132 -20 283 -45z m1338 -745 l0 -730 -24 -60 c-42 -104 -97 -182 -195 -280
l-96 -95 -3 934 c-1 514 1 937 4 940 3 3 60 9 127 12 67 3 137 6 155 7 l32 2
0 -730z m-132 -1989 c7 -16 21 -33 30 -38 9 -4 229 -10 487 -13 l471 -5 -60
-227 -59 -228 -1383 0 -1383 0 -15 53 c-8 28 -33 124 -56 212 -23 88 -43 168
-46 178 -5 16 41 17 861 17 943 0 917 -2 931 55 6 25 8 25 108 25 l101 0 13
-29z"/>
</g>
</svg>
